<?xml version="1.0" encoding="UTF-8" standalone="no"?>
<svg
   xmlns:dc="http://purl.org/dc/elements/1.1/"
   xmlns:cc="http://creativecommons.org/ns#"
   xmlns:rdf="http://www.w3.org/1999/02/22-rdf-syntax-ns#"
   xmlns:svg="http://www.w3.org/2000/svg"
   xmlns="http://www.w3.org/2000/svg"
   xmlns:sodipodi="http://sodipodi.sourceforge.net/DTD/sodipodi-0.dtd"
   xmlns:inkscape="http://www.inkscape.org/namespaces/inkscape"
   width="320"
   height="320"
   viewBox="0 0 84.666664 84.666672"
   version="1.1"
   id="svg1707"
   sodipodi:docname="logo2.svg"
   inkscape:version="1.0.2-2 (e86c870879, 2021-01-15)">
  <defs
     id="defs1701">
    <rect
       x="75.67083"
       y="119.85625"
       width="45.772919"
       height="28.310417"
       id="rect1711" />
    <filter
       inkscape:collect="always"
       style="color-interpolation-filters:sRGB"
       id="filter2784"
       x="-4.3200002e-05"
       width="1.0000864"
       y="-4.3200002e-05"
       height="1.0000864">
      <feGaussianBlur
         inkscape:collect="always"
         stdDeviation="0.00087153745"
         id="feGaussianBlur2786" />
    </filter>
  </defs>
  <sodipodi:namedview
     id="base"
     pagecolor="#ffffff"
     bordercolor="#666666"
     borderopacity="1.0"
     inkscape:pageopacity="1"
     inkscape:pageshadow="2"
     inkscape:zoom="0.94236332"
     inkscape:cx="354.69172"
     inkscape:cy="328.74604"
     inkscape:document-units="px"
     inkscape:current-layer="layer1"
     inkscape:document-rotation="0"
     showgrid="false"
     showguides="true"
     inkscape:guide-bbox="true"
     inkscape:window-width="1920"
     inkscape:window-height="1009"
     inkscape:window-x="1912"
     inkscape:window-y="-8"
     inkscape:window-maximized="1"
     units="px"
     inkscape:pagecheckerboard="false"
     showborder="true"
     borderlayer="false"
     inkscape:showpageshadow="false" />
  <metadata
     id="metadata1704">
    <rdf:RDF>
      <cc:Work
         rdf:about="">
        <dc:format>image/svg+xml</dc:format>
        <dc:type
           rdf:resource="http://purl.org/dc/dcmitype/StillImage" />
        <dc:title></dc:title>
      </cc:Work>
    </rdf:RDF>
  </metadata>
  <g
     inkscape:label="Layer 1"
     inkscape:groupmode="layer"
     id="layer1">
    <path
       id="path2813"
       style="opacity:0.972705;fill:none;fill-rule:evenodd;stroke:#ffffff;stroke-width:0.89628;stroke-linecap:round;stroke-linejoin:round;stroke-miterlimit:4;stroke-dasharray:none;stroke-dashoffset:0;filter:url(#filter2784)"
       d="m 451.68179,526.26541 a 82.009692,82.009692 0 0 0 4.23118,-25.92516 82.009692,82.009692 0 0 0 -29.8306,-63.34551"
       transform="matrix(0.26458333,0,0,0.26458333,-55.591616,-90.406567)" />
    <path
       id="path2809"
       style="opacity:0.972705;fill:none;fill-rule:evenodd;stroke:#ffffff;stroke-width:0.89628;stroke-linecap:round;stroke-linejoin:round;stroke-miterlimit:4;stroke-dasharray:none;stroke-dashoffset:0;filter:url(#filter2784)"
       d="m 321.72401,436.99495 a 82.009692,82.009692 0 0 0 -29.83035,63.19181 82.009692,82.009692 0 0 0 4.23122,26.07875"
       transform="matrix(0.26458333,0,0,0.26458333,-55.591616,-90.406567)" />
    <text
       xml:space="preserve"
       id="text1709"
       style="font-style:normal;font-variant:normal;font-weight:normal;font-stretch:normal;font-size:22.5778px;font-family:'Berlin Sans FB Demi';-inkscape-font-specification:'Berlin Sans FB Demi, Normal';font-variant-ligatures:normal;font-variant-caps:normal;font-variant-numeric:normal;font-variant-east-asian:normal;text-align:center;white-space:pre;shape-inside:url(#rect1711);opacity:0.978;fill:#ffffff;fill-rule:evenodd;stroke:#ffffff;stroke-width:0.265"
       transform="translate(-55.39751,-94.385754)"><tspan
         x="92.812972"
         y="141.16376"><tspan
           style="font-style:normal;font-variant:normal;font-weight:normal;font-stretch:normal;font-size:22.5778px;font-family:'Berlin Sans FB Demi';-inkscape-font-specification:'Berlin Sans FB Demi, Normal';font-variant-ligatures:normal;font-variant-caps:normal;font-variant-numeric:normal;font-variant-east-asian:normal;fill:#ffffff;stroke:#ffffff">β</tspan></tspan></text>
    <g
       aria-label="BETA"
       id="text2284"
       style="font-style:normal;font-variant:normal;font-weight:normal;font-stretch:normal;font-size:7.76111px;font-family:'Bell MT';-inkscape-font-specification:'Bell MT, Normal';font-variant-ligatures:normal;font-variant-caps:normal;font-variant-numeric:normal;font-variant-east-asian:normal;text-align:center;text-anchor:middle;opacity:0.987;mix-blend-mode:normal;fill:#ffffff;fill-opacity:1;fill-rule:evenodd;stroke:none;stroke-width:0.264999"
       transform="translate(-54.619584,-90.406567)">
      <path
         d="m 90.874889,112.16923 q 0.720408,-0.11104 1.173174,0.0556 0.456241,0.16512 0.646803,0.60294 0.204174,0.46909 -0.02301,1.03913 -0.225669,0.57352 -1.000534,0.91079 -0.145939,0.0635 -0.473176,0.18529 -0.209546,0.0788 -0.22692,0.0864 -1.070217,0.46581 -1.436414,0.65 -0.12509,0.0544 -0.153826,-0.0116 -0.01512,-0.0348 0.01357,-0.0638 0.03217,-0.0305 0.246831,-0.17357 0.128402,-0.0848 0.167486,-0.21342 0.03909,-0.1286 -0.04475,-0.43515 -0.08383,-0.30655 -0.331865,-0.87641 -0.245008,-0.56291 -0.380836,-0.91295 -0.137341,-0.35353 -0.217498,-0.53769 -0.249546,-0.57333 -0.445957,-0.90114 -0.192936,-0.32932 -0.31369,-0.38836 -0.122266,-0.0625 -0.385608,0.007 -0.106817,0.03 -0.132527,-0.0291 -0.02722,-0.0625 0.07354,-0.1064 l 0.636938,-0.26483 q 0.309251,-0.13461 0.57423,-0.26647 0.594467,-0.29594 0.771678,-0.37308 0.642825,-0.27979 1.144075,-0.16319 0.497775,0.11812 0.709511,0.60458 0.166364,0.38222 0.03914,0.7641 -0.127227,0.38189 -0.630375,0.81167 z m -2.023651,-1.39235 q 0.299943,0.77458 0.505629,1.24714 l 0.227309,0.51275 q 0.04537,0.10424 0.08527,0.11994 0.04337,0.0142 0.175412,-0.0433 0.660199,-0.28735 0.955437,-0.70103 0.293727,-0.41716 0.04569,-0.98702 -0.210224,-0.48298 -0.611893,-0.5892 -0.399708,-0.1112 -0.840999,0.0809 -0.25713,0.11192 -0.541858,0.35984 z m 0.901389,2.07094 q -0.01084,0.10804 0.08293,0.32347 l 0.44452,1.08776 q 0.248033,0.56985 0.304566,0.62377 0.06001,0.0524 0.249931,0.0235 0.193398,-0.0305 0.565194,-0.19228 0.3301,-0.14368 0.495787,-0.32325 0.167649,-0.18456 0.223419,-0.53121 0.05577,-0.34665 -0.109082,-0.7254 -0.245008,-0.5629 -0.693525,-0.68179 -0.445041,-0.1204 -1.094816,0.16241 -0.218908,0.0953 -0.468926,0.23304 z"
         style="font-style:normal;font-variant:normal;font-weight:normal;font-stretch:normal;font-size:7.76111px;font-family:'Bell MT';-inkscape-font-specification:'Bell MT, Normal';font-variant-ligatures:normal;font-variant-caps:normal;font-variant-numeric:normal;font-variant-east-asian:normal;fill:#ffffff;fill-opacity:1;stroke-width:0.265"
         id="path2719" />
      <path
         d="m 97.096107,108.40005 q 0.172221,0.40319 0.391771,1.14417 -0.01419,0.0328 -0.03667,0.0362 -0.02623,0.004 -0.06074,-0.0215 -0.321528,-0.37674 -0.590496,-0.55831 -0.268969,-0.18156 -0.522389,-0.23517 -0.25024,-0.0579 -0.831005,0.0301 -0.547043,0.0829 -0.855879,0.19479 -0.0243,0.042 -0.009,0.14318 0.004,0.0262 0.0067,0.0948 0.0079,0.30543 0.208832,1.63182 0.0085,0.0562 0.03133,0.15623 0.286464,-0.0319 0.391377,-0.0478 0.472105,-0.0715 0.660932,-0.24192 0.192006,-0.17473 0.279003,-0.66318 0.01431,-0.0827 0.06302,-0.09 0.07119,-0.0108 0.08765,0.0979 l 0.0077,0.15214 q 0.01486,0.30054 0.06253,0.61528 0.07718,0.50957 0.157776,0.91515 0.01929,0.12739 -0.0519,0.13817 -0.05246,0.008 -0.08481,-0.0791 -0.145651,-0.43021 -0.426202,-0.58703 -0.280551,-0.15681 -1.11985,-0.0297 0.03019,0.27523 0.122693,0.88597 0.119745,0.79059 0.208297,0.99564 0.08855,0.20506 0.321418,0.30011 0.232299,0.0913 0.741874,0.0141 1.457532,-0.22076 1.728834,-1.28905 0.03373,-0.13159 0.08993,-0.1401 0.05995,-0.009 0.07244,0.0734 0.0068,0.045 -0.004,0.10025 -0.0117,0.0746 -0.02807,0.54852 -0.004,0.10025 -0.05385,0.60607 l -1.570506,0.23405 q -0.337218,0.0511 -0.997461,0.12041 -0.655927,0.0725 -1.162322,0.14539 -0.502081,0.076 -0.5274,0.0607 -0.02532,-0.0153 -0.02872,-0.0378 -0.01135,-0.0749 0.112297,-0.0937 0.415902,-0.063 0.51356,-0.30392 0.09766,-0.24093 -0.03174,-1.09522 l -0.120088,-0.76754 -0.09772,-0.7211 q -0.03292,-0.21732 -0.150513,-0.81659 -0.114419,-0.60359 -0.149953,-0.68636 -0.03179,-0.0833 -0.141691,-0.15102 -0.106724,-0.072 -0.445755,-0.10879 -0.101391,-0.0115 -0.109904,-0.0677 -0.01022,-0.0674 0.120926,-0.0873 l 0.770604,-0.0746 q 0.407499,-0.0426 1.992425,-0.28262 1.041629,-0.15776 1.064678,-0.15742 z"
         style="font-style:normal;font-variant:normal;font-weight:normal;font-stretch:normal;font-size:7.76111px;font-family:'Bell MT';-inkscape-font-specification:'Bell MT, Normal';font-variant-ligatures:normal;font-variant-caps:normal;font-variant-numeric:normal;font-variant-east-asian:normal;fill:#ffffff;fill-opacity:1;stroke-width:0.265"
         id="path2721" />
      <path
         d="m 101.55214,108.69926 q -0.29162,-0.0506 -0.412,-0.0652 -0.8126,-0.0986 -1.218586,0.19576 -0.405984,0.29433 -0.498117,0.55037 -0.03022,0.0918 -0.112983,0.0817 -0.03762,-0.005 -0.06737,-0.0425 0.07311,-0.4454 0.293192,-1.18982 0.181034,0.0181 0.22994,0.0241 0.293434,0.0356 0.782614,0.12547 0.52679,0.0944 1.62155,0.22722 1.12108,0.13597 1.46286,0.15071 0.31214,0.007 0.85011,0.0726 0.0123,0.27634 -0.008,0.5716 -0.018,0.33756 -0.0119,0.47573 1.1e-4,0.0305 -0.004,0.0644 -0.0109,0.0903 -0.09,0.0807 -0.0489,-0.006 -0.0791,-0.0401 -0.026,-0.0375 -0.11695,-0.23177 -0.15867,-0.32845 -0.35063,-0.50825 -0.19151,-0.18356 -0.44561,-0.26019 -0.25411,-0.0766 -1.04231,-0.1875 -0.11405,0.56259 -0.20257,1.29243 -0.29294,2.41522 -0.24384,2.86018 0.0529,0.44541 0.68864,0.52252 0.15425,0.0187 0.14649,0.0827 -0.009,0.0752 -0.15585,0.0574 l -2.31365,-0.28062 q -0.0903,-0.0109 -0.0816,-0.0824 0.009,-0.0715 0.18549,-0.05 0.2972,0.0361 0.49786,-0.10758 0.20487,-0.14693 0.26588,-0.42965 0.0648,-0.28226 0.23041,-1.64788 0.14146,-1.16623 0.20026,-2.31195 z"
         style="font-style:normal;font-variant:normal;font-weight:normal;font-stretch:normal;font-size:7.76111px;font-family:'Bell MT';-inkscape-font-specification:'Bell MT, Normal';font-variant-ligatures:normal;font-variant-caps:normal;font-variant-numeric:normal;font-variant-east-asian:normal;fill:#ffffff;fill-opacity:1;stroke-width:0.265"
         id="path2723" />
      <path
         d="m 107.90409,109.97212 0.16097,0.0669 q 0.0588,0.96426 -0.0576,3.18944 -0.072,1.427 -0.0253,1.77881 0.0481,0.34831 0.39894,0.53108 0.11112,0.0585 0.0835,0.12498 -0.0204,0.049 -0.0799,0.0243 l -0.0475,-0.0239 q -0.3103,-0.16181 -0.80721,-0.36835 -0.76285,-0.31709 -0.99,-0.38278 -0.10848,-0.0451 -0.0823,-0.10808 0.0189,-0.0455 0.10375,-0.0225 0.30908,0.0956 0.45161,0.0687 0.14602,-0.0255 0.21148,-0.18296 0.0625,-0.15047 0.0993,-0.84109 l 0.0437,-0.6877 q -0.18197,-0.0756 -1.63592,-0.65536 -0.76684,0.81804 -0.87157,1.07 -0.0887,0.21346 0.0461,0.39262 0.13978,0.17712 0.31038,0.26034 0.12512,0.0643 0.096,0.1343 -0.0116,0.028 -0.0638,0.035 -0.54972,-0.25722 -0.6652,-0.30522 -0.58789,-0.24436 -0.79667,-0.31473 -0.11198,-0.0465 -0.0858,-0.10953 0.0233,-0.056 0.12707,-0.0293 0.42424,0.11478 0.84279,-0.2899 0.41855,-0.40468 1.40233,-1.49781 0.89728,-0.99365 1.83082,-1.85731 z m -0.45706,0.70467 q -0.6018,0.52961 -1.56226,1.61601 0.3677,0.13232 0.52517,0.19777 l 0.97605,0.42622 q 0.0218,-0.41775 0.0375,-1.11709 0.0112,-0.83664 0.0235,-1.12291 z"
         style="font-style:normal;font-variant:normal;font-weight:normal;font-stretch:normal;font-size:7.76111px;font-family:'Bell MT';-inkscape-font-specification:'Bell MT, Normal';font-variant-ligatures:normal;font-variant-caps:normal;font-variant-numeric:normal;font-variant-east-asian:normal;fill:#ffffff;fill-opacity:1;stroke-width:0.265"
         id="path2725" />
    </g>
    <text
       xml:space="preserve"
       style="font-style:normal;font-variant:normal;font-weight:normal;font-stretch:normal;font-size:19.7556px;font-family:SANS-SERIF;-inkscape-font-specification:SANS-SERIF;text-align:center;text-anchor:middle;opacity:0.476309;fill:#ffffff;fill-opacity:1;fill-rule:evenodd;stroke:none;stroke-width:0.264999"
       x="15.610416"
       y="178.06458"
       id="text2300"><tspan
         sodipodi:role="line"
         id="tspan2298"
         x="15.610416"
         y="178.06458"
         style="fill:#ffffff;fill-opacity:1;stroke-width:0.265" /></text>
    <g
       aria-label="INSTRUKCIJE"
       id="text2320"
       style="font-style:normal;font-variant:normal;font-weight:normal;font-stretch:normal;font-size:7.76111px;font-family:'Bell MT';-inkscape-font-specification:'Bell MT, Normal';font-variant-ligatures:normal;font-variant-caps:normal;font-variant-numeric:normal;font-variant-east-asian:normal;text-align:center;text-anchor:middle;opacity:0.987;mix-blend-mode:normal;fill:#ffffff;fill-opacity:1;fill-rule:evenodd;stroke:none;stroke-width:0.264999"
       transform="translate(-55.591616,-90.406567)">
      <path
         d="m 82.511217,142.36459 0.374759,0.5792 0.606263,0.86635 q 0.106402,0.15679 0.04369,0.19935 -0.04704,0.0319 -0.117035,-0.0442 -0.280111,-0.31827 -0.546652,-0.26562 -0.264413,0.0558 -1.587677,0.95381 -0.486033,0.32985 -1.077333,0.76777 -0.591301,0.43792 -0.689177,0.55014 -0.09788,0.11223 -0.113548,0.2511 -0.01567,0.13887 0.114701,0.39846 0.04379,0.0848 -0.0064,0.11883 -0.05644,0.0383 -0.105387,-0.0338 l -0.521481,-0.78191 -0.458421,-0.65524 q -0.07448,-0.10975 -0.01177,-0.15231 0.06585,-0.0447 0.125434,0.0431 0.204179,0.28736 0.426369,0.20985 0.22219,-0.0775 1.23502,-0.76486 0.978337,-0.66395 1.570758,-1.09347 0.594549,-0.42639 0.671927,-0.60256 0.07738,-0.17617 -0.04773,-0.43476 -0.04391,-0.0984 0.01254,-0.13674 0.05644,-0.0383 0.101131,0.0275 z"
         style="font-style:normal;font-variant:normal;font-weight:normal;font-stretch:normal;font-size:7.76111px;font-family:'Bell MT';-inkscape-font-specification:'Bell MT, Normal';font-variant-ligatures:normal;font-variant-caps:normal;font-variant-numeric:normal;font-variant-east-asian:normal;fill:#ffffff;fill-opacity:1;stroke-width:0.265"
         id="path2733" />
      <path
         d="m 84.1169,144.77315 q -0.05992,0.37727 -0.127094,1.22879 l -0.154532,1.85024 -0.145795,1.77797 q 0.516214,-0.45326 1.298074,-1.22017 0.587072,-0.57584 0.760683,-0.79391 0.176317,-0.22072 0.157675,-0.51032 -0.01599,-0.28689 -0.244204,-0.51955 -0.106146,-0.10822 -0.06016,-0.15333 0.02705,-0.0265 0.05911,-0.0155 0.03741,0.0111 0.382593,0.34135 0.347888,0.32761 0.576103,0.56028 l 0.355539,0.36788 0.05838,0.0595 q 0.08226,0.0839 0.03357,0.13163 -0.04329,0.0425 -0.123052,-0.0226 -0.297779,-0.24405 -0.53082,-0.25434 -0.227683,-0.0102 -0.462587,0.1724 -0.23225,0.18534 -1.441564,1.37153 l -1.454988,1.37408 q -0.108216,0.10614 -0.161289,0.052 -0.01327,-0.0135 -0.02633,-0.0485 -0.0077,-0.0349 0.03707,-0.5088 0.04748,-0.47654 0.09692,-1.15673 0.0521,-0.67748 0.0989,-1.08435 0.09428,-0.88342 0.104416,-1.10038 0.03185,-0.80095 0.08189,-0.98805 0.03605,-0.1256 -0.0011,-0.16348 -0.02919,-0.0298 -0.134701,0.0737 l -0.414029,0.41672 q -0.798093,0.78283 -1.231785,1.29316 -0.433692,0.51033 -0.472447,0.63859 -0.0334,0.12831 -0.0032,0.3269 0.03289,0.2013 0.162923,0.33387 0.175141,0.17855 0.110212,0.24224 -0.0487,0.0478 -0.146883,-0.0523 l -1.273705,-1.30395 q -0.09022,-0.092 -0.04423,-0.1371 0.05411,-0.0531 0.141679,0.0362 0.3264,0.33276 0.581292,0.30038 0.257597,-0.035 0.736453,-0.50472 l 0.928366,-0.95308 q 0.841379,-0.82529 0.945064,-1.01723 0.10639,-0.1946 0.160897,-0.56656 0.05987,-0.37191 -0.114758,-0.60406 -0.0794,-0.1026 -0.04153,-0.13975 0.0514,-0.0504 0.168163,0.0686 z"
         style="font-style:normal;font-variant:normal;font-weight:normal;font-stretch:normal;font-size:7.76111px;font-family:'Bell MT';-inkscape-font-specification:'Bell MT, Normal';font-variant-ligatures:normal;font-variant-caps:normal;font-variant-numeric:normal;font-variant-east-asian:normal;fill:#ffffff;fill-opacity:1;stroke-width:0.265"
         id="path2735" />
      <path
         d="m 88.885435,149.12214 q 0.14201,-0.0278 0.231656,-0.0999 0.07592,-0.0585 0.123088,-0.0268 0.02515,0.0169 0.03544,0.0695 -0.05415,0.128 -0.243857,0.49822 l -0.322245,0.64188 q -0.03808,0.0566 -0.10725,0.0101 -0.03773,-0.0254 -0.02372,-0.10731 0.110482,-0.52401 -0.03247,-1.01756 -0.145067,-0.49041 -0.531803,-0.75061 -0.380448,-0.25597 -0.729816,-0.1576 -0.346224,0.10049 -0.519691,0.35831 -0.211545,0.31442 -0.113003,0.6228 0.09854,0.30837 0.613943,0.96116 0.382664,0.47671 0.526428,0.77897 0.146907,0.30438 0.139054,0.66906 -0.0079,0.36468 -0.204591,0.65709 -0.334241,0.49679 -1.010563,0.61269 -0.676321,0.1159 -1.273718,-0.28604 -0.537657,-0.36174 -0.855249,-1.06414 -0.166135,0.0161 -0.277965,0.11443 -0.09285,0.0837 -0.149443,0.0456 -0.05031,-0.0339 0.01442,-0.17757 0.06472,-0.14372 0.729614,-1.2813 0.03796,-0.0293 0.09141,0.007 0.04716,0.0317 0.02892,0.11994 -0.334474,1.54258 0.533324,2.12645 0.430754,0.28982 0.846324,0.19488 0.42083,-0.096 0.647184,-0.43239 0.156543,-0.23267 0.155645,-0.51646 0.0022,-0.28167 -0.134316,-0.54712 -0.133418,-0.26333 -0.499333,-0.72419 -0.468354,-0.59374 -0.571069,-0.90949 -0.09745,-0.31678 -0.05422,-0.59828 0.04535,-0.28464 0.180741,-0.48587 0.281356,-0.41818 0.876551,-0.48818 0.598339,-0.0679 1.148573,0.30232 0.207517,0.13962 0.389474,0.35797 0.185102,0.22045 0.342529,0.52277 z"
         style="font-style:normal;font-variant:normal;font-weight:normal;font-stretch:normal;font-size:7.76111px;font-family:'Bell MT';-inkscape-font-specification:'Bell MT, Normal';font-variant-ligatures:normal;font-variant-caps:normal;font-variant-numeric:normal;font-variant-east-asian:normal;fill:#ffffff;fill-opacity:1;stroke-width:0.265"
         id="path2737" />
      <path
         d="m 91.114075,150.18581 q -0.267248,-0.12721 -0.379269,-0.17365 -0.756148,-0.31349 -1.226333,-0.13921 -0.470185,0.17429 -0.627788,0.39611 -0.05379,0.0803 -0.130801,0.0483 -0.03501,-0.0145 -0.05345,-0.0591 0.19021,-0.40932 0.6024,-1.06711 0.169484,0.0662 0.214993,0.085 0.273053,0.1132 0.720032,0.33133 0.481985,0.23264 1.500684,0.65498 1.043202,0.43249 1.368423,0.5386 0.298666,0.091 0.799264,0.29855 -0.06249,0.26946 -0.161688,0.54832 -0.108163,0.32027 -0.139407,0.455 -0.0081,0.0295 -0.02117,0.061 -0.03483,0.084 -0.108346,0.0535 -0.04551,-0.0189 -0.0654,-0.0599 -0.01494,-0.0431 -0.0503,-0.25469 -0.06448,-0.35903 -0.201012,-0.58383 -0.135082,-0.2283 -0.359213,-0.37045 -0.224132,-0.14215 -0.953469,-0.46093 -0.261158,0.51119 -0.542715,1.19032 -0.931748,2.24744 -1.004132,2.6892 -0.06888,0.44322 0.522732,0.68849 0.143528,0.0595 0.118856,0.11901 -0.02903,0.07 -0.165553,0.0134 l -2.152919,-0.89257 q -0.08402,-0.0348 -0.05644,-0.10134 0.02757,-0.0665 0.192107,0.002 0.276554,0.11465 0.508444,0.0303 0.236843,-0.0864 0.371649,-0.34231 0.138305,-0.25444 0.665135,-1.52519 0.44991,-1.08521 0.814695,-2.17289 z"
         style="font-style:normal;font-variant:normal;font-weight:normal;font-stretch:normal;font-size:7.76111px;font-family:'Bell MT';-inkscape-font-specification:'Bell MT, Normal';font-variant-ligatures:normal;font-variant-caps:normal;font-variant-numeric:normal;font-variant-east-asian:normal;fill:#ffffff;fill-opacity:1;stroke-width:0.265"
         id="path2739" />
      <path
         d="m 95.818352,153.81756 q 0.476332,0.31353 0.635142,0.59498 0.15946,0.27771 0.167676,0.80609 0.0102,0.69412 0.194003,0.96452 0.184456,0.26667 0.544029,0.34452 0.09951,0.025 0.08784,0.0922 -0.01167,0.0672 -0.127419,0.0471 -1.045432,-0.18161 -1.257778,-0.28773 -0.207964,-0.10921 -0.195599,-0.82249 0.01659,-0.69331 -0.04159,-1.02266 -0.05379,-0.33244 -0.267945,-0.53888 -0.209768,-0.20953 -0.721283,-0.29839 -0.194152,-0.0337 -0.44771,-0.0355 -0.05953,0.23198 -0.103636,0.48587 -0.166693,0.95955 -0.189851,1.24785 -0.02251,0.28457 0.08547,0.43795 0.11236,0.1503 0.420959,0.2116 0.133764,0.0271 0.123386,0.0868 -0.01232,0.0709 -0.176605,0.0424 l -1.848175,-0.32106 q -0.160548,-0.0279 -0.148225,-0.0988 0.01103,-0.0635 0.137972,-0.0414 0.28376,0.0493 0.406955,-0.0178 0.126929,-0.0664 0.221535,-0.23461 0.09525,-0.17192 0.177628,-0.6461 l 0.124849,-0.76297 0.205451,-1.16053 q 0.154369,-0.88861 0.163241,-1.18324 0.01261,-0.29398 -0.07134,-0.40857 -0.0833,-0.11832 -0.439469,-0.23789 -0.07646,-0.0248 -0.06738,-0.0771 0.01038,-0.0597 0.167192,-0.0325 l 2.218774,0.33544 q 0.914753,0.15891 1.264489,0.58122 0.35347,0.42296 0.265259,0.93074 -0.05578,0.3211 -0.269848,0.557 -0.210333,0.23656 -0.458843,0.31647 -0.248511,0.0799 -0.779151,0.14543 z m -1.398203,-0.3429 q 0.719462,0.1096 1.092814,0.086 0.373351,-0.0236 0.6741,-0.27138 0.304482,-0.24712 0.373883,-0.64662 0.07329,-0.42191 -0.15225,-0.78418 -0.225543,-0.36228 -0.841601,-0.4693 -0.336032,-0.0584 -0.75857,-0.0395 -0.223172,1.01898 -0.328896,1.62757 -0.03632,0.20908 -0.05948,0.49738 z"
         style="font-style:normal;font-variant:normal;font-weight:normal;font-stretch:normal;font-size:7.76111px;font-family:'Bell MT';-inkscape-font-specification:'Bell MT, Normal';font-variant-ligatures:normal;font-variant-caps:normal;font-variant-numeric:normal;font-variant-east-asian:normal;fill:#ffffff;fill-opacity:1;stroke-width:0.265"
         id="path2741" />
      <path
         d="m 97.248585,151.71618 1.896338,-0.0925 q 0.16276,-0.008 0.166082,0.0602 0.0033,0.0681 -0.117248,0.0854 -0.26745,0.0396 -0.390238,0.167 -0.122788,0.1274 -0.17597,0.43731 -0.0494,0.30973 -3.05e-4,1.31657 0.05888,1.20745 0.149707,1.6697 0.09462,0.46206 0.475247,0.72047 0.384228,0.25444 1.020122,0.22343 0.66618,-0.0325 1.00205,-0.30306 0.33586,-0.27058 0.4137,-0.7752 0.0816,-0.5048 2.3e-4,-2.17403 -0.0419,-0.85922 -0.23272,-1.11551 -0.191,-0.26006 -0.53923,-0.24308 -0.14005,0.007 -0.14392,-0.0727 -0.004,-0.0757 0.18177,-0.0847 l 1.51405,-0.0738 q 0.1022,-0.005 0.10589,0.0707 0.003,0.053 -0.0801,0.0684 -0.28564,0.0557 -0.41507,0.20236 -0.12565,0.14651 -0.14939,0.51569 -0.0237,0.36919 0.011,1.08079 0.0434,0.8895 0.006,1.51358 -0.0341,0.6239 -0.23867,0.94119 -0.20477,0.31352 -0.6384,0.52437 -0.43003,0.20687 -1.073499,0.23825 -0.658608,0.0321 -1.134327,-0.15337 -0.472119,-0.18945 -0.655458,-0.52577 -0.17974,-0.34029 -0.213329,-1.02918 l -0.03598,-1.04922 q -0.0681,-1.3967 -0.20436,-1.70118 -0.132657,-0.30844 -0.526677,-0.29681 -0.128694,0.006 -0.131831,-0.0581 -0.0039,-0.0795 0.155099,-0.0872 z"
         style="font-style:normal;font-variant:normal;font-weight:normal;font-stretch:normal;font-size:7.76111px;font-family:'Bell MT';-inkscape-font-specification:'Bell MT, Normal';font-variant-ligatures:normal;font-variant-caps:normal;font-variant-numeric:normal;font-variant-east-asian:normal;fill:#ffffff;fill-opacity:1;stroke-width:0.265"
         id="path2743" />
      <path
         d="m 103.92854,153.49438 q 0.28784,-0.33607 0.43317,-0.60482 0.1443,-0.27241 0.44725,-0.86449 0.30661,-0.59311 0.34778,-0.76985 0.0438,-0.1814 0.0244,-0.25075 -0.0234,-0.084 -0.14032,-0.12215 -0.11426,-0.0429 -0.25177,-0.0281 -0.15212,0.0189 -0.16944,-0.0432 -0.0183,-0.0657 0.10212,-0.0993 0.0255,-0.007 0.0793,-0.0261 0.13302,-0.045 0.80829,-0.23345 0.46357,-0.12938 0.64913,-0.16936 0.18454,-0.0436 0.20084,0.0148 0.0173,0.062 -0.0808,0.10517 -0.32622,0.14219 -0.53937,0.35119 -0.21051,0.20432 -0.59453,0.85838 -0.38504,0.65041 -0.63222,1.23087 0.42341,-0.11817 0.74539,-0.0782 0.32095,0.0363 0.59225,0.27536 0.27394,0.23437 0.60619,0.88918 0.56587,1.09716 1.20065,0.97508 0.14176,-0.0278 0.1601,0.0379 0.0153,0.0548 -0.0504,0.0731 l -0.33785,0.0864 q -0.74462,0.20782 -0.85005,0.25298 -0.24507,-0.18735 -0.364,-0.40202 -0.11528,-0.2157 -0.36749,-0.76695 -0.22088,-0.48131 -0.52622,-0.85642 -0.30169,-0.37613 -0.69226,-0.26713 -0.25916,0.0723 -0.48869,0.32131 -0.23055,0.24532 -0.25092,0.3415 -0.0214,0.0925 0.22513,0.97585 0.17318,0.62052 0.25043,0.75634 0.0809,0.1348 0.23208,0.1831 0.15484,0.0473 0.37996,0.008 0.13548,-0.0221 0.15381,0.0436 0.0173,0.062 -0.0739,0.0875 l -0.0448,0.009 q -0.10424,0.0212 -0.74667,0.20052 -0.77382,0.21596 -0.87195,0.25908 -0.0491,0.0216 -0.0746,0.0287 -0.084,0.0234 -0.10228,-0.0423 -0.0163,-0.0584 0.0818,-0.10152 0.18632,-0.0795 0.25881,-0.18633 0.0751,-0.11146 0.0711,-0.22445 -0.001,-0.11765 -0.1287,-0.74309 -0.12369,-0.62647 -0.23778,-1.03528 -0.15077,-0.54022 -0.26664,-0.91312 -0.11588,-0.37291 -0.27199,-0.80541 -0.15713,-0.43614 -0.22173,-0.51254 -0.0656,-0.08 -0.15187,-0.10713 -0.0873,-0.0307 -0.36654,0.0118 -0.0943,0.0145 -0.10959,-0.0402 -0.0224,-0.0803 0.1455,-0.12716 l 0.29464,-0.0862 1.29172,-0.37624 q 0.0986,-0.0275 0.11587,0.0345 0.0102,0.0365 -0.0176,0.0639 -0.0288,0.0238 -0.19057,0.0925 -0.16545,0.0698 -0.20313,0.1039 -0.0387,0.0305 -0.0611,0.11935 -0.0234,0.0852 0.0245,0.25679 0.11511,0.41246 0.55561,1.83575 z"
         style="font-style:normal;font-variant:normal;font-weight:normal;font-stretch:normal;font-size:7.76111px;font-family:'Bell MT';-inkscape-font-specification:'Bell MT, Normal';font-variant-ligatures:normal;font-variant-caps:normal;font-variant-numeric:normal;font-variant-east-asian:normal;fill:#ffffff;fill-opacity:1;stroke-width:0.265"
         id="path2745" />
      <path
         d="m 109.41271,148.97238 q 0.0992,-0.26093 0.0964,-0.33207 -0.008,-0.0982 0.0555,-0.13141 0.0672,-0.035 0.13693,0.0825 l 0.6877,1.13308 q 0.0525,0.10086 0.0546,0.12964 0.004,0.0237 -0.0366,0.0446 -0.0538,0.028 -0.18951,-0.0851 -0.49997,-0.41912 -1.07506,-0.55566 -0.57671,-0.13142 -1.04401,0.11168 -0.41015,0.21337 -0.6149,0.65735 -0.2065,0.44062 -0.14278,1.03114 0.0653,0.58542 0.3574,1.14685 0.49669,0.95478 1.33246,1.28037 0.83738,0.32047 1.48622,-0.0171 0.44041,-0.22911 0.66506,-0.70053 0.22465,-0.47142 0.22228,-0.93581 -0.002,-0.12709 0.0518,-0.15507 0.074,-0.0385 0.11594,0.0422 0.0507,0.0975 -0.0334,0.55988 -0.0841,0.46238 -0.3943,0.88432 -0.30683,0.4202 -0.78422,0.66855 -0.56144,0.29207 -1.21774,0.27039 -0.65295,-0.0234 -1.21113,-0.3738 -0.55819,-0.35038 -0.91147,-1.02948 -0.34629,-0.66565 -0.33861,-1.34885 0.011,-0.68495 0.37823,-1.25188 0.36719,-0.56694 0.9219,-0.85551 0.29585,-0.1539 0.65411,-0.22067 0.35652,-0.0701 0.7772,-0.0498 z"
         style="font-style:normal;font-variant:normal;font-weight:normal;font-stretch:normal;font-size:7.76111px;font-family:'Bell MT';-inkscape-font-specification:'Bell MT, Normal';font-variant-ligatures:normal;font-variant-caps:normal;font-variant-numeric:normal;font-variant-east-asian:normal;fill:#ffffff;fill-opacity:1;stroke-width:0.265"
         id="path2747" />
      <path
         d="m 109.66344,148.33238 0.56209,-0.39998 0.83873,-0.64393 q 0.15193,-0.11322 0.19722,-0.0524 0.034,0.0456 -0.039,0.11888 -0.30558,0.29389 -0.24121,0.55785 0.0674,0.26169 1.023,1.544 0.35098,0.47099 0.81459,1.04238 0.46361,0.57138 0.58005,0.6642 0.11643,0.0928 0.25586,0.10235 0.13943,0.01 0.39301,-0.13218 0.0828,-0.0475 0.119,10e-4 0.0408,0.0547 -0.0291,0.10678 l -0.75812,0.5555 -0.63436,0.48691 q -0.10636,0.0793 -0.15164,0.0185 -0.0476,-0.0638 0.0375,-0.12721 0.27806,-0.21667 0.19081,-0.43522 -0.0872,-0.21855 -0.81866,-1.20004 -0.7065,-0.94806 -1.16177,-1.52093 -0.45223,-0.57514 -0.63164,-0.64466 -0.17942,-0.0695 -0.43223,0.0669 -0.0964,0.0482 -0.13716,-0.006 -0.0408,-0.0547 0.023,-0.10225 z"
         style="font-style:normal;font-variant:normal;font-weight:normal;font-stretch:normal;font-size:7.76111px;font-family:'Bell MT';-inkscape-font-specification:'Bell MT, Normal';font-variant-ligatures:normal;font-variant-caps:normal;font-variant-numeric:normal;font-variant-east-asian:normal;fill:#ffffff;fill-opacity:1;stroke-width:0.265"
         id="path2749" />
      <path
         d="m 111.82239,146.68228 0.0465,-0.0391 q 0.31424,-0.25254 0.78595,-0.70237 0.20843,-0.19877 0.35416,-0.35345 0.0853,-0.0918 0.13189,-0.13626 0.085,-0.0811 0.13471,-0.029 0.0523,0.0548 -0.019,0.12284 -0.21665,0.20661 -0.22359,0.38604 -0.007,0.17406 0.33478,0.57619 0.34433,0.39951 0.77848,0.85476 l 0.95472,0.99565 q 0.57798,0.60608 0.5027,1.18059 -0.0753,0.5745 -0.39341,0.87788 -0.24408,0.23276 -0.52645,0.27163 -0.28236,0.0389 -0.47851,-0.16682 -0.11769,-0.12342 -0.11974,-0.26285 -0.002,-0.13943 0.1049,-0.24142 0.10422,-0.0994 0.23006,-0.0937 0.12323,0.003 0.20169,0.0852 0.0471,0.0494 0.0743,0.14383 0.0292,0.12399 0.0684,0.16512 0.0654,0.0686 0.16482,0.0575 0.0994,-0.011 0.18171,-0.0895 0.19472,-0.18569 0.19534,-0.43763 -0.002,-0.25469 -0.24944,-0.55808 -0.25005,-0.30614 -1.14449,-1.24407 -1.09059,-1.14361 -1.34319,-1.3426 -0.24986,-0.2016 -0.61856,0.0872 -0.0874,0.0676 -0.13446,0.0182 -0.0602,-0.0631 0.006,-0.12584 z"
         style="font-style:normal;font-variant:normal;font-weight:normal;font-stretch:normal;font-size:7.76111px;font-family:'Bell MT';-inkscape-font-specification:'Bell MT, Normal';font-variant-ligatures:normal;font-variant-caps:normal;font-variant-numeric:normal;font-variant-east-asian:normal;fill:#ffffff;fill-opacity:1;stroke-width:0.265"
         id="path2751" />
      <path
         d="m 115.46286,142.49237 q 0.40557,0.16655 1.08181,0.54065 0.0129,0.0333 -7.4e-4,0.0515 -0.0159,0.0212 -0.0583,0.0273 -0.49343,-0.043 -0.81249,0.0163 -0.31905,0.0593 -0.53727,0.19882 -0.21898,0.13426 -0.57119,0.60433 -0.33177,0.44278 -0.47336,0.73919 0.0122,0.047 0.094,0.10834 0.0212,0.0159 0.0713,0.0629 0.21989,0.21211 1.29348,1.01653 0.0455,0.0341 0.13192,0.0894 0.1818,-0.22367 0.24543,-0.30859 0.28631,-0.38212 0.30135,-0.63604 0.0143,-0.25921 -0.26634,-0.66836 -0.0478,-0.069 -0.0182,-0.10837 0.0432,-0.0576 0.13113,0.008 l 0.11222,0.10303 q 0.2214,0.20378 0.47615,0.39465 0.41246,0.30904 0.75439,0.54157 0.10311,0.0773 0.0599,0.13488 -0.0318,0.0425 -0.11597,0.003 -0.40558,-0.20445 -0.71553,-0.11942 -0.30995,0.085 -0.81896,0.76436 0.21458,0.17498 0.70891,0.54537 0.63991,0.47947 0.84686,0.5635 0.20696,0.084 0.43959,-0.0116 0.22961,-0.0979 0.53865,-0.51033 0.88394,-1.17974 0.32794,-2.13143 -0.0683,-0.11744 -0.0342,-0.16293 0.0364,-0.0485 0.10308,0.001 0.0364,0.0273 0.0675,0.0742 0.044,0.0614 0.36475,0.41062 0.0675,0.0742 0.38676,0.46973 l -0.95515,1.26845 q -0.20451,0.27295 -0.62644,0.7855 -0.41661,0.51179 -0.72641,0.91894 -0.3045,0.40638 -0.3333,0.41322 -0.0288,0.007 -0.047,-0.007 -0.0607,-0.0454 0.0143,-0.14553 0.25223,-0.33663 0.15283,-0.57685 -0.0994,-0.24021 -0.79086,-0.75831 l -0.62399,-0.4628 -0.57546,-0.44539 q -0.1759,-0.1318 -0.68008,-0.47642 -0.50494,-0.34992 -0.58833,-0.38399 -0.0811,-0.0371 -0.20691,-0.008 -0.12656,0.0236 -0.39401,0.23514 -0.0803,0.0629 -0.1258,0.0289 -0.0546,-0.0409 0.0249,-0.14705 l 0.49692,-0.59368 q 0.26058,-0.31618 1.22178,-1.59903 0.63172,-0.8431 0.64838,-0.85902 z"
         style="font-style:normal;font-variant:normal;font-weight:normal;font-stretch:normal;font-size:7.76111px;font-family:'Bell MT';-inkscape-font-specification:'Bell MT, Normal';font-variant-ligatures:normal;font-variant-caps:normal;font-variant-numeric:normal;font-variant-east-asian:normal;fill:#ffffff;fill-opacity:1;stroke-width:0.265"
         id="path2753" />
    </g>
  </g>
</svg>
